<svg width="2344" height="1954" xmlns="http://www.w3.org/2000/svg" xmlns:xlink="http://www.w3.org/1999/xlink" overflow="hidden"><defs><clipPath id="clip0"><rect x="984" y="230" width="2344" height="1954"/></clipPath></defs><g clip-path="url(#clip0)" transform="translate(-984 -230)"><rect x="986.5" y="232.5" width="2339" height="1949" stroke="#000000" stroke-width="4.58333" stroke-miterlimit="8" fill="none"/><path d="M0 466.1C-7.30778e-14 208.68 256.988-5.93408e-14 574-1.18682e-13 891.011-2.37363e-13 1148 208.68 1148 466.1 1148 723.52 891.011 932.201 574 932.201 256.988 932.201-3.65389e-13 723.52 0 466.1Z" stroke="#2F528F" stroke-width="4.58333" stroke-miterlimit="8" fill="#326772" fill-rule="evenodd" transform="matrix(-0.998429 0.0560338 0.0560338 0.998429 3249.77 961.547)"/><path d="M0 431.77C-8.50693e-14 193.31 299.158-5.49701e-14 668.188-1.0994e-13 1037.22-2.1988e-13 1336.38 193.31 1336.38 431.77 1336.38 670.23 1037.22 863.54 668.188 863.54 299.158 863.54-4.25346e-13 670.23 0 431.77Z" stroke="#FFFFFF" stroke-width="4.58333" stroke-miterlimit="8" fill="#FFFFFF" fill-rule="evenodd" transform="matrix(-0.998429 0.0560338 0.0560338 0.998429 2833.98 852.696)"/><path d="M0 186.716C-2.35931e-14 83.5956 82.9685-2.37714e-14 185.315-4.75429e-14 247.087-1.58476e-14 308.859 0 370.631 0 370.631 62.2387 370.631 124.477 370.631 186.716 370.631 289.836 287.662 373.432 185.315 373.432 82.9685 373.432 0 289.836 0 186.716Z" stroke="#2F528F" stroke-width="4.58333" stroke-miterlimit="8" fill="#326772" fill-rule="evenodd" transform="matrix(-0.998429 0.0560338 0.0560338 0.998429 2816.49 485.955)"/><path d="M1034.5 1455.5C1034.5 1198.69 1292.61 990.5 1611 990.5 1929.39 990.5 2187.5 1198.69 2187.5 1455.5 2187.5 1712.31 1929.39 1920.5 1611 1920.5 1292.61 1920.5 1034.5 1712.31 1034.5 1455.5Z" stroke="#2F528F" stroke-width="4.58333" stroke-miterlimit="8" fill="#525252" fill-rule="evenodd"/><path d="M1445.5 1286.5C1445.5 1048.47 1745.92 855.5 2116.5 855.5 2487.08 855.5 2787.5 1048.47 2787.5 1286.5 2787.5 1524.53 2487.08 1717.5 2116.5 1717.5 1745.92 1717.5 1445.5 1524.53 1445.5 1286.5Z" stroke="#FFFFFF" stroke-width="4.58333" stroke-miterlimit="8" fill="#FFFFFF" fill-rule="evenodd"/><path d="M1445.5 678C1445.5 574.999 1528.78 491.5 1631.5 491.5 1693.5 491.5 1755.5 491.5 1817.5 491.5 1817.5 553.667 1817.5 615.833 1817.5 678 1817.5 781.001 1734.22 864.5 1631.5 864.5 1528.78 864.5 1445.5 781.001 1445.5 678Z" stroke="#2F528F" stroke-width="4.58333" stroke-miterlimit="8" fill="#525252" fill-rule="evenodd"/></g></svg>