<svg width="2344" height="1954" xmlns="http://www.w3.org/2000/svg" xmlns:xlink="http://www.w3.org/1999/xlink" overflow="hidden"><defs><clipPath id="clip0"><rect x="984" y="230" width="2344" height="1954"/></clipPath></defs><g clip-path="url(#clip0)" transform="translate(-984 -230)"><rect x="986.5" y="232.5" width="2339" height="1949" stroke="#000000" stroke-width="4.58333" stroke-miterlimit="8" fill="none"/><path d="M1034.5 1650C1034.5 1364.74 1321.26 1133.5 1675 1133.5 2028.74 1133.5 2315.5 1364.74 2315.5 1650 2315.5 1935.26 2028.74 2166.5 1675 2166.5 1321.26 2166.5 1034.5 1935.26 1034.5 1650Z" stroke="#7F7F7F" stroke-width="4.58333" stroke-miterlimit="8" fill="#7F7F7F" fill-rule="evenodd"/><path d="M1491.5 1463C1491.5 1198.73 1825.5 984.5 2237.5 984.5 2649.5 984.5 2983.5 1198.73 2983.5 1463 2983.5 1727.27 2649.5 1941.5 2237.5 1941.5 1825.5 1941.5 1491.5 1727.27 1491.5 1463Z" stroke="#FFFFFF" stroke-width="4.58333" stroke-miterlimit="8" fill="#FFFFFF" fill-rule="evenodd"/><path d="M1491.5 814.5C1491.5 700.177 1584.18 607.5 1698.5 607.5 1767.5 607.5 1836.5 607.5 1905.5 607.5 1905.5 676.5 1905.5 745.5 1905.5 814.5 1905.5 928.823 1812.82 1021.5 1698.5 1021.5 1584.18 1021.5 1491.5 928.823 1491.5 814.5Z" stroke="#7F7F7F" stroke-width="4.58333" stroke-miterlimit="8" fill="#7F7F7F" fill-rule="evenodd"/><rect x="1986.5" y="318.5" width="1297" height="707" stroke="#000000" stroke-width="4.58333" stroke-miterlimit="8" fill="#004C38"/><rect x="1986.5" y="1025.5" width="1297" height="56" stroke="#000000" stroke-width="4.58333" stroke-miterlimit="8"/></g></svg>