<svg id="svg" version="1.1" xmlns="http://www.w3.org/2000/svg" xmlns:xlink="http://www.w3.org/1999/xlink" width="400" height="224.79338842975207" viewBox="0, 0, 400,224.79338842975207"><g id="svgg"><path id="path0" d="M0.000 27.768 L 0.000 55.537 102.614 55.537 C 189.886 55.537,205.268 55.583,205.488 55.849 C 205.662 56.059,205.726 57.142,205.684 59.165 L 205.621 62.170 102.811 62.226 L -0.000 62.283 -0.000 143.564 L 0.000 224.845 200.000 224.845 L 400.000 224.845 400.000 195.166 L 400.000 165.487 297.527 165.430 L 195.053 165.374 194.990 162.370 C 194.948 160.346,195.012 159.263,195.187 159.053 C 195.407 158.788,210.739 158.741,297.723 158.741 L 400.000 158.741 400.000 79.370 L 400.000 0.000 262.638 -0.000 C 154.120 -0.000,125.257 0.058,125.184 0.277 C 125.124 0.456,124.345 0.602,122.973 0.690 C 121.808 0.766,120.197 0.939,119.393 1.075 C 116.697 1.533,114.569 1.857,113.207 2.019 C 112.464 2.107,111.351 2.289,110.734 2.423 C 109.505 2.690,107.481 3.092,105.902 3.382 C 104.305 3.675,101.249 4.392,99.157 4.965 C 98.600 5.117,97.740 5.321,97.246 5.417 C 96.751 5.514,95.790 5.745,95.110 5.931 C 91.513 6.915,90.222 7.254,89.713 7.349 C 89.404 7.407,88.949 7.538,88.702 7.642 C 88.454 7.745,87.695 7.994,87.015 8.195 C 83.911 9.112,82.597 9.513,82.181 9.668 C 81.934 9.761,80.972 10.067,80.045 10.349 C 79.117 10.630,78.257 10.937,78.134 11.031 C 78.010 11.125,77.528 11.273,77.063 11.360 C 76.598 11.447,76.162 11.608,76.094 11.717 C 76.027 11.827,75.800 11.917,75.591 11.918 C 75.382 11.919,74.921 12.071,74.567 12.255 C 74.213 12.440,73.786 12.591,73.619 12.591 C 73.452 12.591,72.983 12.733,72.576 12.906 C 72.170 13.079,71.383 13.391,70.826 13.598 C 70.270 13.806,69.528 14.120,69.178 14.296 C 68.828 14.471,68.373 14.618,68.166 14.622 C 67.960 14.626,67.594 14.778,67.354 14.959 C 67.114 15.141,66.743 15.289,66.529 15.289 C 66.316 15.289,65.855 15.433,65.504 15.609 C 65.154 15.785,64.413 16.101,63.856 16.312 C 62.770 16.723,62.329 16.913,59.977 17.976 C 59.142 18.353,58.393 18.662,58.312 18.662 C 58.232 18.662,57.600 18.926,56.908 19.249 C 56.215 19.572,55.295 19.989,54.862 20.175 C 53.646 20.700,48.496 23.163,48.117 23.400 C 47.931 23.516,47.628 23.670,47.442 23.740 C 47.257 23.811,46.852 24.001,46.543 24.163 C 45.940 24.478,42.992 26.032,40.247 27.483 C 38.817 28.238,35.556 30.099,34.401 30.819 C 34.216 30.935,33.862 31.132,33.614 31.256 C 33.367 31.381,32.810 31.710,32.377 31.987 C 31.944 32.264,31.096 32.794,30.491 33.165 C 26.302 35.737,17.450 41.974,16.726 42.864 C 16.589 43.032,16.407 43.170,16.323 43.170 C 16.238 43.170,15.794 43.514,15.336 43.935 C 14.878 44.355,13.946 45.136,13.266 45.670 C 12.586 46.204,10.468 48.182,8.559 50.065 C 5.225 53.354,4.722 53.723,4.722 52.878 C 4.722 52.293,10.061 47.112,14.374 43.514 C 14.675 43.263,15.282 42.745,15.723 42.363 C 16.943 41.308,22.047 37.549,22.260 37.549 C 22.363 37.549,22.481 37.473,22.522 37.381 C 22.631 37.136,28.920 32.939,29.904 32.454 C 30.090 32.363,30.343 32.202,30.467 32.097 C 30.787 31.826,33.075 30.354,33.176 30.354 C 33.223 30.354,34.011 29.899,34.928 29.342 C 35.844 28.786,36.708 28.331,36.847 28.331 C 36.986 28.331,37.099 28.250,37.099 28.153 C 37.099 28.055,37.428 27.816,37.830 27.623 C 39.342 26.895,41.938 25.532,42.046 25.410 C 42.108 25.341,42.917 24.901,43.845 24.433 C 44.772 23.965,45.683 23.496,45.868 23.390 C 46.054 23.285,47.192 22.734,48.398 22.167 C 49.604 21.600,51.577 20.669,52.782 20.098 C 53.988 19.528,55.278 18.926,55.649 18.761 C 56.020 18.596,57.007 18.152,57.842 17.775 C 58.677 17.397,59.492 17.088,59.652 17.088 C 59.813 17.088,60.040 16.998,60.157 16.887 C 60.275 16.777,61.282 16.313,62.395 15.857 C 63.508 15.401,64.594 14.934,64.809 14.821 C 65.023 14.708,65.307 14.615,65.439 14.615 C 65.684 14.615,67.474 13.876,68.181 13.483 C 68.396 13.364,68.700 13.265,68.856 13.264 C 69.012 13.264,69.396 13.130,69.708 12.967 C 70.021 12.803,70.476 12.609,70.720 12.534 C 70.964 12.460,72.175 12.031,73.412 11.582 C 74.649 11.132,75.964 10.676,76.335 10.568 C 76.996 10.375,81.748 8.771,83.080 8.292 C 83.451 8.158,84.008 7.999,84.317 7.939 C 84.626 7.878,85.198 7.686,85.588 7.512 C 85.977 7.338,86.429 7.195,86.592 7.195 C 86.755 7.195,87.296 7.056,87.795 6.886 C 89.607 6.269,90.516 5.992,91.287 5.820 C 92.395 5.575,94.534 5.035,96.121 4.602 C 97.547 4.212,99.581 3.753,101.630 3.358 C 102.310 3.227,103.170 3.033,103.541 2.927 C 104.775 2.575,109.149 1.684,111.186 1.369 C 111.804 1.274,112.917 1.078,113.659 0.935 C 114.401 0.792,115.691 0.616,116.526 0.544 C 121.924 0.081,113.372 0.000,59.022 0.000 L 0.000 0.000 0.000 27.768 M397.486 169.272 C 396.110 171.229,389.658 177.722,386.812 180.014 C 386.215 180.495,385.472 181.124,385.162 181.413 C 384.852 181.701,383.789 182.555,382.799 183.311 C 381.810 184.067,380.950 184.742,380.888 184.813 C 380.724 185.000,376.279 188.163,374.709 189.210 C 373.969 189.703,373.261 190.187,373.135 190.285 C 372.629 190.679,368.699 193.176,367.841 193.649 C 366.737 194.256,366.430 194.440,365.261 195.191 C 364.767 195.509,363.755 196.101,363.013 196.507 C 362.271 196.913,361.344 197.437,360.953 197.672 C 359.066 198.809,351.723 202.533,347.611 204.438 C 345.366 205.478,343.297 206.413,342.552 206.724 C 342.181 206.880,341.523 207.166,341.091 207.361 C 339.023 208.292,335.263 209.781,334.978 209.781 C 334.803 209.781,334.564 209.865,334.446 209.968 C 334.329 210.072,333.727 210.337,333.108 210.559 C 332.490 210.781,331.681 211.092,331.310 211.251 C 330.939 211.410,329.978 211.754,329.174 212.016 C 328.370 212.278,327.510 212.584,327.263 212.697 C 327.015 212.809,326.105 213.126,325.239 213.400 C 324.373 213.675,323.569 213.985,323.451 214.089 C 323.334 214.193,323.030 214.278,322.777 214.279 C 322.523 214.280,322.026 214.432,321.672 214.616 C 321.318 214.801,320.812 214.956,320.548 214.960 C 320.284 214.965,319.815 215.113,319.505 215.289 C 319.196 215.466,318.741 215.615,318.494 215.620 C 318.246 215.625,317.754 215.781,317.400 215.965 C 317.046 216.150,316.604 216.301,316.418 216.301 C 316.233 216.301,315.561 216.464,314.926 216.663 C 314.291 216.862,313.316 217.151,312.760 217.306 C 312.203 217.460,311.192 217.745,310.512 217.938 C 308.104 218.622,307.241 218.847,306.352 219.026 C 305.857 219.125,304.795 219.370,303.991 219.571 C 301.450 220.204,298.365 220.865,294.435 221.616 C 285.093 223.402,274.311 224.619,274.311 223.889 C 274.311 223.257,274.873 223.089,277.459 222.951 C 279.827 222.824,282.399 222.525,286.565 221.892 C 287.431 221.761,288.746 221.570,289.488 221.468 C 292.910 220.998,296.431 220.331,302.417 219.022 C 302.974 218.900,304.845 218.431,306.577 217.980 C 308.308 217.529,310.129 217.066,310.624 216.951 C 311.119 216.837,311.726 216.657,311.973 216.552 C 312.447 216.351,313.770 215.986,315.458 215.591 C 316.015 215.461,316.566 215.264,316.684 215.153 C 316.801 215.043,317.105 214.952,317.358 214.951 C 317.612 214.950,318.109 214.798,318.463 214.614 C 318.817 214.429,319.323 214.274,319.587 214.270 C 319.851 214.265,320.320 214.117,320.630 213.940 C 320.939 213.764,321.379 213.615,321.607 213.611 C 321.836 213.607,322.342 213.468,322.732 213.303 C 323.827 212.839,324.958 212.445,325.576 212.314 C 325.885 212.248,326.239 212.117,326.363 212.022 C 326.487 211.928,326.942 211.747,327.375 211.621 C 327.808 211.494,328.718 211.171,329.399 210.904 C 330.079 210.636,330.838 210.366,331.085 210.304 C 331.332 210.241,331.838 210.058,332.209 209.897 C 333.342 209.404,333.956 209.151,335.245 208.645 C 335.925 208.379,336.684 208.075,336.931 207.971 C 337.178 207.867,338.291 207.411,339.404 206.957 C 340.517 206.503,341.962 205.890,342.614 205.595 C 343.267 205.300,343.847 205.059,343.903 205.059 C 344.230 205.059,357.315 198.617,359.078 197.589 C 359.511 197.336,360.422 196.828,361.102 196.461 C 362.613 195.644,370.614 190.864,370.770 190.685 C 370.832 190.614,371.085 190.436,371.332 190.290 C 373.072 189.258,374.721 188.156,376.209 187.030 C 377.160 186.311,377.999 185.722,378.074 185.722 C 378.148 185.722,378.331 185.618,378.481 185.490 C 378.630 185.363,379.663 184.546,380.776 183.675 C 381.889 182.804,383.005 181.922,383.256 181.715 C 383.506 181.507,384.215 180.933,384.829 180.439 C 386.517 179.082,386.886 178.762,388.566 177.204 C 391.389 174.584,393.725 172.192,396.053 169.533 C 397.286 168.125,398.441 167.915,397.486 169.272 " stroke="none" fill="#ececec" fill-rule="evenodd"></path><path id="path1" d="M0.000 58.895 L 0.000 61.580 0.956 61.715 C 1.481 61.789,47.594 61.820,103.429 61.785 L 204.947 61.720 204.947 59.022 L 204.947 56.324 102.473 56.267 L 0.000 56.211 0.000 58.895 M195.664 159.606 C 195.450 159.741,195.392 160.453,195.439 162.356 L 195.503 164.924 297.752 164.981 L 400.000 165.037 400.000 162.226 L 400.000 159.415 297.976 159.419 C 241.863 159.421,195.823 159.505,195.664 159.606 " stroke="none" fill="#1b4e5c" fill-rule="evenodd"></path><path id="path2" d="M119.843 0.225 C 119.843 0.349,120.146 0.450,120.517 0.450 C 120.888 0.450,121.192 0.349,121.192 0.225 C 121.192 0.101,120.888 0.000,120.517 0.000 C 120.146 0.000,119.843 0.101,119.843 0.225 M123.440 0.225 C 123.440 0.349,123.592 0.450,123.777 0.450 C 123.963 0.450,124.115 0.349,124.115 0.225 C 124.115 0.101,123.963 0.000,123.777 0.000 C 123.592 0.000,123.440 0.101,123.440 0.225 M114.952 1.054 C 115.169 1.111,115.523 1.111,115.739 1.054 C 115.956 0.998,115.779 0.952,115.346 0.952 C 114.913 0.952,114.736 0.998,114.952 1.054 M117.201 1.054 C 117.417 1.111,117.771 1.111,117.988 1.054 C 118.204 0.998,118.027 0.952,117.594 0.952 C 117.161 0.952,116.984 0.998,117.201 1.054 M112.704 1.729 C 112.920 1.785,113.274 1.785,113.491 1.729 C 113.707 1.672,113.530 1.626,113.097 1.626 C 112.664 1.626,112.487 1.672,112.704 1.729 M108.210 2.410 C 108.552 2.461,109.058 2.460,109.334 2.407 C 109.611 2.353,109.331 2.311,108.713 2.313 C 108.094 2.314,107.868 2.358,108.210 2.410 M104.949 3.082 C 105.229 3.136,105.634 3.134,105.849 3.077 C 106.064 3.021,105.835 2.977,105.340 2.980 C 104.845 2.982,104.670 3.028,104.949 3.082 M101.799 3.756 C 102.077 3.810,102.532 3.810,102.811 3.756 C 103.089 3.703,102.861 3.659,102.305 3.659 C 101.748 3.659,101.521 3.703,101.799 3.756 M98.932 4.272 C 98.457 4.424,98.520 4.456,99.339 4.474 C 99.932 4.488,100.254 4.410,100.169 4.272 C 100.010 4.016,99.732 4.016,98.932 4.272 M96.121 4.947 C 95.773 5.096,95.887 5.143,96.627 5.156 C 97.153 5.164,97.583 5.070,97.583 4.947 C 97.583 4.677,96.748 4.677,96.121 4.947 M93.311 5.621 C 93.067 5.779,93.269 5.840,94.042 5.843 C 94.629 5.844,95.110 5.745,95.110 5.621 C 95.110 5.334,93.755 5.334,93.311 5.621 M90.838 6.296 C 90.590 6.456,90.751 6.515,91.443 6.517 C 91.961 6.519,92.447 6.419,92.524 6.296 C 92.704 6.004,91.288 6.004,90.838 6.296 M88.477 6.970 C 88.297 7.260,89.489 7.260,89.938 6.970 C 90.190 6.808,90.064 6.751,89.446 6.749 C 88.989 6.747,88.553 6.847,88.477 6.970 M86.341 7.645 C 86.341 7.931,87.247 7.931,87.690 7.645 C 87.941 7.483,87.811 7.426,87.184 7.423 C 86.720 7.421,86.341 7.521,86.341 7.645 M84.317 8.319 C 84.317 8.586,84.708 8.586,85.329 8.319 C 85.706 8.157,85.660 8.123,85.048 8.110 C 84.646 8.102,84.317 8.196,84.317 8.319 M82.293 8.963 C 82.293 9.069,82.546 9.108,82.856 9.049 C 83.165 8.990,83.418 8.903,83.418 8.855 C 83.418 8.808,83.165 8.769,82.856 8.769 C 82.546 8.769,82.293 8.856,82.293 8.963 M80.326 9.598 C 80.542 9.655,80.897 9.655,81.113 9.598 C 81.329 9.542,81.152 9.496,80.720 9.496 C 80.287 9.496,80.110 9.542,80.326 9.598 M78.115 10.313 C 78.227 10.494,79.370 10.395,79.370 10.204 C 79.370 10.157,79.061 10.118,78.683 10.118 C 78.304 10.118,78.049 10.206,78.115 10.313 M76.504 10.948 C 76.720 11.004,77.074 11.004,77.291 10.948 C 77.507 10.891,77.330 10.845,76.897 10.845 C 76.464 10.845,76.287 10.891,76.504 10.948 M69.140 13.484 C 68.774 13.635,68.824 13.668,69.413 13.659 C 69.811 13.653,70.083 13.562,70.018 13.457 C 69.879 13.231,69.740 13.235,69.140 13.484 M67.341 14.153 C 66.993 14.294,67.082 14.336,67.734 14.340 C 68.197 14.343,68.520 14.254,68.452 14.143 C 68.303 13.902,67.955 13.906,67.341 14.153 M65.767 14.840 C 65.393 15.001,65.442 15.036,66.062 15.049 C 66.504 15.058,66.749 14.973,66.667 14.840 C 66.505 14.578,66.377 14.578,65.767 14.840 M64.081 15.514 C 63.808 15.691,63.840 15.733,64.250 15.736 C 64.528 15.738,64.755 15.638,64.755 15.514 C 64.755 15.233,64.517 15.233,64.081 15.514 M60.821 16.863 C 60.744 16.987,60.890 17.088,61.145 17.088 C 61.399 17.088,61.608 16.987,61.608 16.863 C 61.608 16.740,61.462 16.639,61.284 16.639 C 61.105 16.639,60.897 16.740,60.821 16.863 M57.785 18.212 C 57.785 18.494,58.024 18.494,58.460 18.212 C 58.733 18.036,58.700 17.994,58.291 17.991 C 58.013 17.989,57.785 18.089,57.785 18.212 M56.211 18.887 C 56.211 19.011,56.357 19.112,56.535 19.112 C 56.714 19.112,56.922 19.011,56.998 18.887 C 57.075 18.763,56.929 18.662,56.674 18.662 C 56.420 18.662,56.211 18.763,56.211 18.887 M51.814 20.890 C 51.883 21.002,52.142 21.040,52.389 20.976 C 53.008 20.814,52.952 20.686,52.263 20.686 C 51.947 20.686,51.745 20.777,51.814 20.890 M50.365 21.585 C 50.365 21.849,50.538 21.849,51.152 21.585 C 51.551 21.414,51.532 21.390,50.984 21.376 C 50.644 21.367,50.365 21.461,50.365 21.585 M49.116 22.239 C 49.185 22.351,49.444 22.389,49.691 22.325 C 50.310 22.163,50.254 22.035,49.565 22.035 C 49.249 22.035,49.046 22.127,49.116 22.239 M42.721 25.408 C 42.448 25.584,42.480 25.626,42.889 25.629 C 43.168 25.631,43.395 25.531,43.395 25.408 C 43.395 25.126,43.157 25.126,42.721 25.408 M41.372 26.082 C 41.110 26.251,41.175 26.301,41.666 26.303 C 42.030 26.305,42.239 26.212,42.159 26.082 C 41.986 25.803,41.804 25.803,41.372 26.082 M40.247 26.757 C 39.975 26.933,40.007 26.975,40.416 26.978 C 40.694 26.980,40.922 26.880,40.922 26.757 C 40.922 26.475,40.683 26.475,40.247 26.757 M38.898 27.431 C 38.626 27.607,38.658 27.650,39.067 27.653 C 39.345 27.654,39.573 27.555,39.573 27.431 C 39.573 27.149,39.334 27.149,38.898 27.431 M37.662 28.106 C 37.585 28.229,37.731 28.331,37.986 28.331 C 38.240 28.331,38.449 28.229,38.449 28.106 C 38.449 27.982,38.303 27.881,38.125 27.881 C 37.946 27.881,37.738 27.982,37.662 28.106 M36.537 28.780 C 36.461 28.904,36.550 29.005,36.736 29.005 C 36.921 29.005,37.135 28.904,37.212 28.780 C 37.288 28.657,37.199 28.555,37.014 28.555 C 36.828 28.555,36.614 28.657,36.537 28.780 M35.413 29.455 C 35.337 29.578,35.426 29.680,35.611 29.680 C 35.797 29.680,36.011 29.578,36.088 29.455 C 36.164 29.331,36.075 29.230,35.889 29.230 C 35.704 29.230,35.490 29.331,35.413 29.455 M34.129 30.163 C 33.928 30.291,33.989 30.348,34.332 30.351 C 34.603 30.353,34.877 30.270,34.940 30.167 C 35.089 29.926,34.508 29.923,34.129 30.163 M31.928 31.478 C 31.928 31.760,32.167 31.760,32.603 31.478 C 32.875 31.302,32.843 31.260,32.434 31.257 C 32.156 31.255,31.928 31.355,31.928 31.478 M29.904 32.827 C 29.904 33.109,30.143 33.109,30.579 32.827 C 30.852 32.651,30.819 32.609,30.410 32.606 C 30.132 32.604,29.904 32.704,29.904 32.827 M22.934 37.324 C 22.662 37.501,22.694 37.543,23.103 37.546 C 23.381 37.548,23.609 37.448,23.609 37.324 C 23.609 37.043,23.370 37.043,22.934 37.324 M20.124 39.348 C 20.047 39.472,20.193 39.573,20.448 39.573 C 20.702 39.573,20.911 39.472,20.911 39.348 C 20.911 39.224,20.765 39.123,20.587 39.123 C 20.408 39.123,20.200 39.224,20.124 39.348 M19.224 40.022 C 19.148 40.146,19.237 40.247,19.423 40.247 C 19.608 40.247,19.822 40.146,19.899 40.022 C 19.975 39.899,19.886 39.798,19.701 39.798 C 19.515 39.798,19.301 39.899,19.224 40.022 M18.212 40.809 C 18.059 40.995,17.805 41.147,17.649 41.147 C 17.493 41.147,17.310 41.359,17.242 41.619 C 17.174 41.879,17.011 42.025,16.879 41.943 C 16.747 41.861,16.639 41.902,16.639 42.033 C 16.639 42.403,16.845 42.323,17.763 41.596 C 18.231 41.225,18.726 40.922,18.863 40.922 C 19.000 40.922,19.112 40.821,19.112 40.697 C 19.112 40.356,18.529 40.428,18.212 40.809 M16.280 42.461 C 16.368 42.604,16.324 42.721,16.182 42.721 C 15.860 42.721,14.177 43.896,14.170 44.126 C 14.160 44.479,14.625 44.269,15.289 43.620 C 15.669 43.249,16.071 42.945,16.183 42.945 C 16.524 42.945,16.663 42.538,16.383 42.364 C 16.218 42.263,16.180 42.299,16.280 42.461 M12.697 45.205 C 12.483 45.551,12.776 45.774,13.064 45.485 C 13.226 45.324,13.230 45.198,13.076 45.103 C 12.950 45.025,12.780 45.071,12.697 45.205 M9.837 47.822 C 9.621 47.879,9.444 48.019,9.444 48.133 C 9.444 48.412,8.602 49.241,8.319 49.241 C 8.196 49.241,8.094 49.393,8.094 49.578 C 8.094 49.764,7.984 49.916,7.849 49.916 C 7.580 49.916,6.765 50.812,6.753 51.121 C 6.749 51.227,7.304 50.747,7.987 50.053 C 8.670 49.359,9.327 48.791,9.448 48.791 C 9.569 48.791,9.668 48.640,9.668 48.454 C 9.668 48.269,9.820 48.117,10.006 48.117 C 10.191 48.117,10.343 48.016,10.343 47.892 C 10.343 47.768,10.318 47.679,10.287 47.693 C 10.256 47.708,10.053 47.766,9.837 47.822 M5.417 52.251 C 5.233 52.473,5.224 52.620,5.387 52.720 C 5.518 52.801,5.687 52.705,5.763 52.506 C 5.953 52.011,5.744 51.857,5.417 52.251 M51.227 55.930 C 79.464 55.962,125.602 55.962,153.756 55.930 C 181.911 55.899,158.808 55.873,102.417 55.873 C 46.026 55.873,22.990 55.899,51.227 55.930 M205.332 59.172 C 205.298 61.022,205.201 61.828,205.003 61.908 C 204.783 61.997,204.784 62.026,205.010 62.040 C 205.466 62.068,205.530 61.628,205.452 59.007 L 205.379 56.549 205.332 59.172 M384.833 180.760 C 384.679 181.009,385.034 181.277,385.241 181.069 C 385.455 180.856,385.415 180.551,385.173 180.551 C 385.057 180.551,384.904 180.645,384.833 180.760 M383.264 182.114 C 383.025 182.201,382.928 182.333,383.050 182.408 C 383.282 182.552,383.987 182.219,383.805 182.053 C 383.746 182.000,383.503 182.027,383.264 182.114 M380.720 184.072 C 380.259 184.258,380.401 184.566,380.888 184.438 C 381.135 184.374,381.338 184.231,381.338 184.122 C 381.338 183.908,381.162 183.894,380.720 184.072 M377.965 186.172 C 377.692 186.348,377.725 186.391,378.134 186.393 C 378.412 186.395,378.640 186.296,378.640 186.172 C 378.640 185.890,378.401 185.890,377.965 186.172 M365.721 194.026 C 365.491 194.398,365.969 194.487,366.409 194.154 C 366.821 193.842,366.819 193.831,366.343 193.824 C 366.072 193.820,365.792 193.911,365.721 194.026 M364.699 194.716 C 364.427 194.892,364.459 194.935,364.868 194.938 C 365.146 194.939,365.374 194.840,365.374 194.716 C 365.374 194.434,365.135 194.434,364.699 194.716 M363.575 195.391 C 363.302 195.567,363.335 195.609,363.744 195.612 C 364.022 195.614,364.250 195.514,364.250 195.391 C 364.250 195.109,364.011 195.109,363.575 195.391 M362.338 196.065 C 362.262 196.189,362.408 196.290,362.662 196.290 C 362.917 196.290,363.125 196.189,363.125 196.065 C 363.125 195.942,362.980 195.840,362.801 195.840 C 362.623 195.840,362.415 195.942,362.338 196.065 M361.214 196.740 C 361.138 196.863,361.284 196.965,361.538 196.965 C 361.793 196.965,362.001 196.863,362.001 196.740 C 362.001 196.616,361.855 196.515,361.677 196.515 C 361.499 196.515,361.291 196.616,361.214 196.740 M359.978 197.414 C 359.978 197.538,360.123 197.639,360.302 197.639 C 360.480 197.639,360.688 197.538,360.764 197.414 C 360.841 197.291,360.695 197.189,360.440 197.189 C 360.186 197.189,359.978 197.291,359.978 197.414 M358.741 198.089 C 358.664 198.212,358.810 198.314,359.065 198.314 C 359.319 198.314,359.528 198.212,359.528 198.089 C 359.528 197.965,359.382 197.864,359.204 197.864 C 359.026 197.864,358.817 197.965,358.741 198.089 M357.617 198.763 C 357.540 198.887,357.629 198.988,357.815 198.988 C 358.000 198.988,358.215 198.887,358.291 198.763 C 358.368 198.640,358.278 198.539,358.093 198.539 C 357.907 198.539,357.693 198.640,357.617 198.763 M356.380 199.438 C 356.380 199.720,356.619 199.720,357.055 199.438 C 357.327 199.262,357.295 199.219,356.886 199.216 C 356.608 199.215,356.380 199.314,356.380 199.438 M355.031 200.112 C 355.031 200.394,355.270 200.394,355.705 200.112 C 355.978 199.936,355.946 199.894,355.537 199.891 C 355.259 199.889,355.031 199.989,355.031 200.112 M352.432 201.440 C 352.501 201.552,352.760 201.591,353.008 201.527 C 353.626 201.365,353.571 201.237,352.882 201.237 C 352.565 201.237,352.363 201.328,352.432 201.440 M344.126 205.284 C 343.727 205.455,343.747 205.479,344.295 205.493 C 344.635 205.502,344.913 205.408,344.913 205.284 C 344.913 205.020,344.740 205.020,344.126 205.284 M342.482 205.927 C 342.287 206.051,342.419 206.121,342.876 206.134 C 343.254 206.144,343.564 206.059,343.564 205.943 C 343.564 205.684,342.881 205.674,342.482 205.927 M340.978 206.633 C 340.580 206.804,340.599 206.828,341.147 206.842 C 341.487 206.851,341.765 206.757,341.765 206.633 C 341.765 206.369,341.592 206.369,340.978 206.633 M339.292 207.307 C 339.036 207.473,339.131 207.526,339.685 207.529 C 340.087 207.531,340.416 207.431,340.416 207.307 C 340.416 207.022,339.734 207.022,339.292 207.307 M337.718 207.982 C 337.462 208.147,337.557 208.201,338.111 208.203 C 338.513 208.205,338.842 208.106,338.842 207.982 C 338.842 207.696,338.160 207.696,337.718 207.982 M336.031 208.657 C 335.953 208.784,336.137 208.881,336.455 208.881 C 336.764 208.881,337.079 208.780,337.156 208.657 C 337.234 208.530,337.050 208.432,336.733 208.432 C 336.423 208.432,336.108 208.533,336.031 208.657 M334.458 209.331 C 334.381 209.455,334.521 209.556,334.768 209.556 C 335.016 209.556,335.281 209.455,335.357 209.331 C 335.433 209.207,335.294 209.106,335.046 209.106 C 334.799 209.106,334.534 209.207,334.458 209.331 M332.771 210.006 C 332.771 210.290,333.231 210.290,333.671 210.006 C 333.933 209.836,333.871 209.787,333.390 209.784 C 333.049 209.782,332.771 209.882,332.771 210.006 M325.632 212.634 C 325.849 212.690,326.203 212.690,326.419 212.634 C 326.636 212.577,326.459 212.531,326.026 212.531 C 325.593 212.531,325.416 212.577,325.632 212.634 M321.810 213.983 C 322.026 214.040,322.381 214.040,322.597 213.983 C 322.813 213.926,322.636 213.880,322.203 213.880 C 321.771 213.880,321.594 213.926,321.810 213.983 M319.677 214.662 C 319.956 214.715,320.361 214.713,320.576 214.657 C 320.791 214.601,320.562 214.557,320.067 214.559 C 319.573 214.562,319.397 214.608,319.677 214.662 M317.538 215.332 C 317.754 215.389,318.108 215.389,318.325 215.332 C 318.541 215.276,318.364 215.229,317.931 215.229 C 317.499 215.229,317.322 215.276,317.538 215.332 M315.514 216.007 C 315.731 216.063,316.085 216.063,316.301 216.007 C 316.518 215.950,316.341 215.904,315.908 215.904 C 315.475 215.904,315.298 215.950,315.514 216.007 M310.793 217.356 C 311.009 217.412,311.363 217.412,311.580 217.356 C 311.796 217.299,311.619 217.253,311.186 217.253 C 310.753 217.253,310.576 217.299,310.793 217.356 M289.660 221.859 C 290.002 221.911,290.508 221.909,290.784 221.856 C 291.061 221.802,290.781 221.760,290.163 221.762 C 289.545 221.764,289.318 221.807,289.660 221.859 M284.879 222.573 C 285.065 222.675,285.722 222.686,286.341 222.596 L 287.465 222.432 286.003 222.409 C 285.119 222.395,284.675 222.460,284.879 222.573 M279.322 223.213 C 280.038 223.258,281.151 223.257,281.796 223.212 C 282.440 223.167,281.855 223.130,280.495 223.131 C 279.134 223.131,278.607 223.168,279.322 223.213 " stroke="none" fill="#8c988b" fill-rule="evenodd"></path><path id="path3" d="M118.044 0.207 C 118.044 0.321,117.361 0.473,116.526 0.544 C 115.691 0.616,114.401 0.792,113.659 0.935 C 112.917 1.078,111.804 1.276,111.186 1.375 C 108.761 1.761,104.735 2.577,103.541 2.924 C 103.170 3.031,102.310 3.227,101.630 3.358 C 99.581 3.753,97.547 4.212,96.121 4.602 C 94.534 5.035,92.395 5.575,91.287 5.820 C 90.516 5.992,89.607 6.269,87.795 6.886 C 87.296 7.056,86.755 7.195,86.592 7.195 C 86.429 7.195,85.977 7.338,85.588 7.512 C 85.198 7.686,84.626 7.878,84.317 7.939 C 84.008 7.999,83.451 8.158,83.080 8.292 C 81.748 8.771,76.996 10.375,76.335 10.568 C 75.964 10.676,74.649 11.132,73.412 11.582 C 72.175 12.031,70.964 12.460,70.720 12.534 C 70.476 12.609,70.021 12.803,69.708 12.967 C 69.396 13.130,69.012 13.264,68.856 13.264 C 68.700 13.265,68.396 13.364,68.181 13.483 C 67.474 13.876,65.684 14.615,65.439 14.615 C 65.307 14.615,65.023 14.708,64.809 14.821 C 64.594 14.934,63.508 15.401,62.395 15.857 C 61.282 16.313,60.275 16.777,60.157 16.887 C 60.040 16.998,59.813 17.088,59.652 17.088 C 59.492 17.088,58.677 17.397,57.842 17.775 C 57.007 18.152,56.020 18.596,55.649 18.761 C 55.278 18.926,53.988 19.528,52.782 20.098 C 51.577 20.669,49.604 21.600,48.398 22.167 C 47.192 22.734,46.054 23.285,45.868 23.390 C 45.683 23.496,44.772 23.965,43.845 24.433 C 42.917 24.901,42.108 25.341,42.046 25.410 C 41.938 25.532,39.342 26.895,37.830 27.623 C 37.428 27.816,37.099 28.055,37.099 28.153 C 37.099 28.250,36.986 28.331,36.847 28.331 C 36.708 28.331,35.844 28.786,34.928 29.342 C 34.011 29.899,33.223 30.354,33.176 30.354 C 33.075 30.354,30.787 31.826,30.467 32.097 C 30.343 32.202,30.090 32.363,29.904 32.454 C 28.920 32.939,22.631 37.136,22.522 37.381 C 22.481 37.473,22.363 37.549,22.260 37.549 C 22.047 37.549,16.943 41.308,15.723 42.363 C 15.282 42.745,14.675 43.263,14.374 43.514 C 10.061 47.112,4.722 52.293,4.722 52.878 C 4.722 53.723,5.225 53.354,8.559 50.065 C 10.468 48.182,12.586 46.204,13.266 45.670 C 13.946 45.136,14.878 44.355,15.336 43.935 C 15.794 43.514,16.238 43.170,16.323 43.170 C 16.407 43.170,16.589 43.032,16.726 42.864 C 17.450 41.974,26.302 35.737,30.491 33.165 C 31.096 32.794,31.944 32.264,32.377 31.987 C 32.810 31.710,33.367 31.381,33.614 31.256 C 33.862 31.132,34.216 30.935,34.401 30.819 C 35.556 30.099,38.817 28.238,40.247 27.483 C 44.391 25.293,46.027 24.433,46.655 24.113 C 47.026 23.924,47.482 23.682,47.667 23.575 C 47.853 23.469,48.156 23.318,48.342 23.241 C 48.527 23.165,49.893 22.520,51.377 21.808 C 52.861 21.097,54.429 20.362,54.862 20.175 C 55.295 19.989,56.215 19.572,56.908 19.249 C 57.600 18.926,58.232 18.662,58.312 18.662 C 58.393 18.662,59.142 18.353,59.977 17.976 C 62.329 16.913,62.770 16.723,63.856 16.312 C 64.413 16.101,65.154 15.785,65.504 15.609 C 65.855 15.433,66.316 15.289,66.529 15.289 C 66.743 15.289,67.114 15.141,67.354 14.959 C 67.594 14.778,67.960 14.626,68.166 14.622 C 68.373 14.618,68.828 14.471,69.178 14.296 C 69.528 14.120,70.270 13.806,70.826 13.598 C 71.383 13.391,72.170 13.079,72.576 12.906 C 72.983 12.733,73.452 12.591,73.619 12.591 C 73.786 12.591,74.213 12.440,74.567 12.255 C 74.921 12.071,75.382 11.919,75.591 11.918 C 75.800 11.917,76.027 11.827,76.094 11.717 C 76.162 11.608,76.598 11.447,77.063 11.360 C 77.528 11.273,78.010 11.125,78.134 11.031 C 78.257 10.937,79.117 10.630,80.045 10.349 C 80.972 10.067,81.934 9.761,82.181 9.668 C 82.597 9.513,83.911 9.112,87.015 8.195 C 87.695 7.994,88.454 7.745,88.702 7.642 C 88.949 7.538,89.404 7.407,89.713 7.349 C 90.222 7.254,91.513 6.915,95.110 5.931 C 95.790 5.745,96.751 5.514,97.246 5.417 C 97.740 5.321,98.600 5.117,99.157 4.965 C 101.249 4.392,104.305 3.675,105.902 3.382 C 107.481 3.092,109.505 2.690,110.734 2.423 C 111.351 2.289,112.464 2.107,113.207 2.019 C 114.646 1.848,117.070 1.477,119.280 1.090 C 120.022 0.960,121.439 0.807,122.428 0.751 C 124.620 0.625,125.239 0.508,125.239 0.221 C 125.239 0.099,124.986 0.000,124.677 0.000 C 124.368 0.000,124.115 0.101,124.115 0.225 C 124.115 0.359,123.253 0.450,121.979 0.450 C 120.705 0.450,119.843 0.359,119.843 0.225 C 119.843 0.101,119.438 0.000,118.943 0.000 C 118.449 0.000,118.044 0.093,118.044 0.207 M117.426 1.064 C 116.900 1.111,116.040 1.111,115.514 1.064 C 114.989 1.017,115.419 0.978,116.470 0.978 C 117.521 0.978,117.951 1.017,117.426 1.064 M113.036 1.738 C 112.570 1.787,111.861 1.786,111.462 1.736 C 111.063 1.687,111.445 1.647,112.310 1.648 C 113.176 1.649,113.503 1.689,113.036 1.738 M109.334 2.407 C 109.058 2.460,108.552 2.461,108.210 2.410 C 107.868 2.358,108.094 2.314,108.713 2.313 C 109.331 2.311,109.611 2.353,109.334 2.407 M105.849 3.077 C 105.634 3.134,105.229 3.136,104.949 3.082 C 104.670 3.028,104.845 2.982,105.340 2.980 C 105.835 2.977,106.064 3.021,105.849 3.077 M102.811 3.756 C 102.532 3.810,102.077 3.810,101.799 3.756 C 101.521 3.703,101.748 3.659,102.305 3.659 C 102.861 3.659,103.089 3.703,102.811 3.756 M100.169 4.272 C 100.254 4.410,99.932 4.488,99.339 4.474 C 98.520 4.456,98.457 4.424,98.932 4.272 C 99.732 4.016,100.010 4.016,100.169 4.272 M97.583 4.947 C 97.583 5.070,97.153 5.164,96.627 5.156 C 95.887 5.143,95.773 5.096,96.121 4.947 C 96.748 4.677,97.583 4.677,97.583 4.947 M95.110 5.621 C 95.110 5.745,94.629 5.844,94.042 5.843 C 93.269 5.840,93.067 5.779,93.311 5.621 C 93.755 5.334,95.110 5.334,95.110 5.621 M92.524 6.296 C 92.447 6.419,91.961 6.519,91.443 6.517 C 90.751 6.515,90.590 6.456,90.838 6.296 C 91.288 6.004,92.704 6.004,92.524 6.296 M89.938 6.970 C 89.489 7.260,88.297 7.260,88.477 6.970 C 88.553 6.847,88.989 6.747,89.446 6.749 C 90.064 6.751,90.190 6.808,89.938 6.970 M87.690 7.645 C 87.247 7.931,86.341 7.931,86.341 7.645 C 86.341 7.521,86.720 7.421,87.184 7.423 C 87.811 7.426,87.941 7.483,87.690 7.645 M85.329 8.319 C 84.708 8.586,84.317 8.586,84.317 8.319 C 84.317 8.196,84.646 8.102,85.048 8.110 C 85.660 8.123,85.706 8.157,85.329 8.319 M83.418 8.855 C 83.418 8.903,83.165 8.990,82.856 9.049 C 82.546 9.108,82.293 9.069,82.293 8.963 C 82.293 8.856,82.546 8.769,82.856 8.769 C 83.165 8.769,83.418 8.808,83.418 8.855 M81.113 9.598 C 80.897 9.655,80.542 9.655,80.326 9.598 C 80.110 9.542,80.287 9.496,80.720 9.496 C 81.152 9.496,81.329 9.542,81.113 9.598 M79.370 10.204 C 79.370 10.395,78.227 10.494,78.115 10.313 C 78.049 10.206,78.304 10.118,78.683 10.118 C 79.061 10.118,79.370 10.157,79.370 10.204 M77.291 10.948 C 77.074 11.004,76.720 11.004,76.504 10.948 C 76.287 10.891,76.464 10.845,76.897 10.845 C 77.330 10.845,77.507 10.891,77.291 10.948 M75.494 11.622 C 75.279 11.678,74.875 11.680,74.595 11.626 C 74.315 11.572,74.491 11.526,74.986 11.524 C 75.481 11.521,75.709 11.565,75.494 11.622 M73.974 12.229 C 73.974 12.410,72.369 12.497,72.261 12.323 C 72.199 12.223,72.560 12.142,73.061 12.142 C 73.563 12.142,73.974 12.181,73.974 12.229 M71.838 12.816 C 71.922 12.952,71.638 13.035,71.121 13.025 C 70.437 13.013,70.355 12.971,70.714 12.816 C 71.332 12.551,71.674 12.551,71.838 12.816 M70.039 13.491 C 70.122 13.624,69.876 13.709,69.434 13.700 C 68.814 13.687,68.765 13.652,69.140 13.491 C 69.750 13.229,69.877 13.229,70.039 13.491 M68.465 14.165 C 68.549 14.301,68.265 14.384,67.748 14.374 C 67.064 14.362,66.982 14.320,67.341 14.165 C 67.959 13.900,68.301 13.900,68.465 14.165 M66.667 14.840 C 66.749 14.973,66.504 15.058,66.062 15.049 C 65.442 15.036,65.393 15.001,65.767 14.840 C 66.377 14.578,66.505 14.578,66.667 14.840 M64.755 15.514 C 64.755 15.638,64.528 15.738,64.250 15.736 C 63.840 15.733,63.808 15.691,64.081 15.514 C 64.517 15.233,64.755 15.233,64.755 15.514 M61.608 16.863 C 61.608 16.987,61.399 17.088,61.145 17.088 C 60.890 17.088,60.744 16.987,60.821 16.863 C 60.897 16.740,61.105 16.639,61.284 16.639 C 61.462 16.639,61.608 16.740,61.608 16.863 M58.460 18.212 C 58.024 18.494,57.785 18.494,57.785 18.212 C 57.785 18.089,58.013 17.989,58.291 17.991 C 58.700 17.994,58.733 18.036,58.460 18.212 M56.998 18.887 C 56.922 19.011,56.714 19.112,56.535 19.112 C 56.357 19.112,56.211 19.011,56.211 18.887 C 56.211 18.763,56.420 18.662,56.674 18.662 C 56.929 18.662,57.075 18.763,56.998 18.887 M52.839 20.772 C 52.839 20.972,51.929 21.076,51.814 20.890 C 51.745 20.777,51.947 20.686,52.263 20.686 C 52.580 20.686,52.839 20.725,52.839 20.772 M51.152 21.585 C 50.538 21.849,50.365 21.849,50.365 21.585 C 50.365 21.461,50.644 21.367,50.984 21.376 C 51.532 21.390,51.551 21.414,51.152 21.585 M50.141 22.121 C 50.141 22.321,49.231 22.425,49.116 22.239 C 49.046 22.127,49.249 22.035,49.565 22.035 C 49.882 22.035,50.141 22.074,50.141 22.121 M47.161 23.539 C 46.945 23.595,46.591 23.595,46.374 23.539 C 46.158 23.482,46.335 23.436,46.768 23.436 C 47.201 23.436,47.378 23.482,47.161 23.539 M44.744 24.733 C 44.744 24.857,44.466 24.948,44.126 24.935 L 43.508 24.913 44.070 24.733 C 44.379 24.634,44.657 24.543,44.688 24.531 C 44.719 24.518,44.744 24.609,44.744 24.733 M43.395 25.408 C 43.395 25.531,43.168 25.631,42.889 25.629 C 42.480 25.626,42.448 25.584,42.721 25.408 C 43.157 25.126,43.395 25.126,43.395 25.408 M42.159 26.082 C 42.239 26.212,42.030 26.305,41.666 26.303 C 41.175 26.301,41.110 26.251,41.372 26.082 C 41.804 25.803,41.986 25.803,42.159 26.082 M40.922 26.757 C 40.922 26.880,40.694 26.980,40.416 26.978 C 40.007 26.975,39.975 26.933,40.247 26.757 C 40.683 26.475,40.922 26.475,40.922 26.757 M39.573 27.431 C 39.573 27.555,39.345 27.654,39.067 27.653 C 38.658 27.650,38.626 27.607,38.898 27.431 C 39.334 27.149,39.573 27.149,39.573 27.431 M38.449 28.106 C 38.449 28.229,38.240 28.331,37.986 28.331 C 37.731 28.331,37.585 28.229,37.662 28.106 C 37.738 27.982,37.946 27.881,38.125 27.881 C 38.303 27.881,38.449 27.982,38.449 28.106 M37.212 28.780 C 37.135 28.904,36.921 29.005,36.736 29.005 C 36.550 29.005,36.461 28.904,36.537 28.780 C 36.614 28.657,36.828 28.555,37.014 28.555 C 37.199 28.555,37.288 28.657,37.212 28.780 M36.088 29.455 C 36.011 29.578,35.797 29.680,35.611 29.680 C 35.426 29.680,35.337 29.578,35.413 29.455 C 35.490 29.331,35.704 29.230,35.889 29.230 C 36.075 29.230,36.164 29.331,36.088 29.455 M34.963 30.129 C 34.887 30.253,34.603 30.353,34.332 30.351 C 33.931 30.348,33.902 30.306,34.177 30.129 C 34.619 29.843,35.140 29.843,34.963 30.129 M33.727 30.804 C 33.291 31.086,33.052 31.086,33.052 30.804 C 33.052 30.680,33.280 30.581,33.558 30.582 C 33.967 30.585,34.000 30.628,33.727 30.804 M32.603 31.478 C 32.167 31.760,31.928 31.760,31.928 31.478 C 31.928 31.355,32.156 31.255,32.434 31.257 C 32.843 31.260,32.875 31.302,32.603 31.478 M30.579 32.827 C 30.143 33.109,29.904 33.109,29.904 32.827 C 29.904 32.704,30.132 32.604,30.410 32.606 C 30.819 32.609,30.852 32.651,30.579 32.827 M23.609 37.324 C 23.609 37.448,23.381 37.548,23.103 37.546 C 22.694 37.543,22.662 37.501,22.934 37.324 C 23.370 37.043,23.609 37.043,23.609 37.324 M20.911 39.348 C 20.911 39.472,20.702 39.573,20.448 39.573 C 20.193 39.573,20.047 39.472,20.124 39.348 C 20.200 39.224,20.408 39.123,20.587 39.123 C 20.765 39.123,20.911 39.224,20.911 39.348 M19.899 40.022 C 19.822 40.146,19.608 40.247,19.423 40.247 C 19.237 40.247,19.148 40.146,19.224 40.022 C 19.301 39.899,19.515 39.798,19.701 39.798 C 19.886 39.798,19.975 39.899,19.899 40.022 M19.112 40.697 C 19.112 40.821,19.000 40.922,18.863 40.922 C 18.726 40.922,18.231 41.225,17.763 41.596 C 16.853 42.317,16.639 42.403,16.639 42.046 C 16.639 41.922,16.790 41.821,16.976 41.821 C 17.161 41.821,17.313 41.669,17.313 41.484 C 17.313 41.298,17.452 41.147,17.623 41.147 C 17.793 41.147,18.059 40.995,18.212 40.809 C 18.529 40.428,19.112 40.356,19.112 40.697 M16.517 42.736 C 16.445 42.851,16.295 42.945,16.183 42.945 C 16.071 42.945,15.669 43.249,15.289 43.620 C 14.628 44.266,14.151 44.484,14.178 44.126 C 14.199 43.860,16.282 42.320,16.474 42.429 C 16.568 42.483,16.588 42.621,16.517 42.736 M13.064 45.485 C 12.776 45.774,12.483 45.551,12.697 45.205 C 12.780 45.071,12.950 45.025,13.076 45.103 C 13.230 45.198,13.226 45.324,13.064 45.485 M10.343 47.892 C 10.343 48.016,10.191 48.117,10.006 48.117 C 9.820 48.117,9.668 48.269,9.668 48.454 C 9.668 48.640,9.569 48.791,9.448 48.791 C 9.327 48.791,8.670 49.359,7.987 50.053 C 7.304 50.747,6.749 51.227,6.753 51.121 C 6.765 50.812,7.580 49.916,7.849 49.916 C 7.984 49.916,8.094 49.764,8.094 49.578 C 8.094 49.393,8.196 49.241,8.319 49.241 C 8.602 49.241,9.444 48.412,9.444 48.133 C 9.444 48.019,9.621 47.879,9.837 47.822 C 10.053 47.766,10.256 47.708,10.287 47.693 C 10.318 47.679,10.343 47.768,10.343 47.892 M5.763 52.506 C 5.687 52.705,5.518 52.801,5.387 52.720 C 5.224 52.620,5.233 52.473,5.417 52.251 C 5.744 51.857,5.953 52.011,5.763 52.506 M102.462 55.761 C 175.595 55.842,205.106 55.944,205.280 56.117 C 205.435 56.273,205.500 57.367,205.460 59.153 L 205.396 61.945 102.642 62.058 L -0.112 62.171 102.754 62.170 L 205.621 62.170 205.684 59.165 C 205.726 57.142,205.662 56.059,205.488 55.849 C 205.267 55.583,189.927 55.545,102.558 55.593 L -0.112 55.648 102.462 55.761 M195.187 159.053 C 195.012 159.263,194.948 160.346,194.990 162.370 L 195.053 165.374 297.470 165.374 L 399.888 165.375 297.520 165.318 L 195.153 165.261 195.216 162.282 L 195.278 159.303 297.639 159.247 C 365.618 159.209,400.000 159.115,400.000 158.965 C 400.000 158.575,195.511 158.663,195.187 159.053 M397.289 168.384 C 397.096 168.460,396.540 168.977,396.053 169.533 C 393.725 172.192,391.389 174.584,388.566 177.204 C 386.886 178.762,386.517 179.082,384.829 180.439 C 384.215 180.933,383.506 181.507,383.256 181.715 C 383.005 181.922,381.889 182.804,380.776 183.675 C 379.663 184.546,378.630 185.363,378.481 185.490 C 378.331 185.618,378.148 185.722,378.074 185.722 C 377.999 185.722,377.160 186.311,376.209 187.030 C 374.721 188.156,373.072 189.258,371.332 190.290 C 371.085 190.436,370.832 190.614,370.770 190.685 C 370.614 190.864,362.613 195.644,361.102 196.461 C 360.422 196.828,359.511 197.336,359.078 197.589 C 357.315 198.617,344.230 205.059,343.903 205.059 C 343.847 205.059,343.267 205.300,342.614 205.595 C 341.962 205.890,340.517 206.503,339.404 206.957 C 338.291 207.411,337.178 207.867,336.931 207.971 C 336.684 208.075,335.925 208.379,335.245 208.645 C 333.956 209.151,333.342 209.404,332.209 209.897 C 331.838 210.058,331.332 210.241,331.085 210.304 C 330.838 210.366,330.079 210.636,329.399 210.904 C 328.718 211.171,327.808 211.494,327.375 211.621 C 326.942 211.747,326.487 211.928,326.363 212.022 C 326.239 212.117,325.885 212.248,325.576 212.314 C 324.958 212.445,323.827 212.839,322.732 213.303 C 322.342 213.468,321.836 213.607,321.607 213.611 C 321.379 213.615,320.939 213.764,320.630 213.940 C 320.320 214.117,319.851 214.265,319.587 214.270 C 319.323 214.274,318.817 214.429,318.463 214.614 C 318.109 214.798,317.612 214.950,317.358 214.951 C 317.105 214.952,316.801 215.043,316.684 215.153 C 316.566 215.264,316.015 215.461,315.458 215.591 C 313.770 215.986,312.447 216.351,311.973 216.552 C 311.726 216.657,311.119 216.837,310.624 216.951 C 310.129 217.066,308.308 217.529,306.577 217.980 C 304.845 218.431,302.974 218.900,302.417 219.022 C 296.431 220.331,292.910 220.998,289.488 221.468 C 288.746 221.570,287.431 221.761,286.565 221.892 C 282.399 222.525,279.827 222.824,277.459 222.951 C 274.873 223.089,274.311 223.257,274.311 223.889 C 274.311 224.619,285.093 223.402,294.435 221.616 C 298.365 220.865,301.450 220.204,303.991 219.571 C 304.795 219.370,305.857 219.125,306.352 219.026 C 307.241 218.847,308.104 218.622,310.512 217.938 C 311.192 217.745,312.203 217.460,312.760 217.306 C 313.316 217.151,314.291 216.862,314.926 216.663 C 315.561 216.464,316.233 216.301,316.418 216.301 C 316.604 216.301,317.046 216.150,317.400 215.965 C 317.754 215.781,318.246 215.625,318.494 215.620 C 318.741 215.615,319.196 215.466,319.505 215.289 C 319.815 215.113,320.284 214.965,320.548 214.960 C 320.812 214.956,321.318 214.801,321.672 214.616 C 322.026 214.432,322.523 214.280,322.777 214.279 C 323.030 214.278,323.334 214.193,323.451 214.089 C 323.569 213.985,324.373 213.675,325.239 213.400 C 326.105 213.126,327.015 212.809,327.263 212.697 C 327.510 212.584,328.370 212.278,329.174 212.016 C 329.978 211.754,330.939 211.410,331.310 211.251 C 331.681 211.092,332.490 210.781,333.108 210.559 C 333.727 210.337,334.329 210.072,334.446 209.968 C 334.564 209.865,334.803 209.781,334.978 209.781 C 335.263 209.781,339.023 208.292,341.091 207.361 C 341.523 207.166,342.181 206.880,342.552 206.724 C 342.923 206.569,343.884 206.144,344.688 205.779 C 350.622 203.083,358.433 199.191,360.953 197.672 C 361.344 197.437,362.271 196.913,363.013 196.507 C 363.755 196.101,364.767 195.509,365.261 195.191 C 366.430 194.440,366.737 194.256,367.841 193.649 C 368.699 193.176,372.629 190.679,373.135 190.285 C 373.261 190.187,373.969 189.703,374.709 189.210 C 376.279 188.163,380.724 185.000,380.888 184.813 C 380.950 184.742,381.810 184.067,382.799 183.311 C 383.789 182.555,384.852 181.701,385.162 181.413 C 385.472 181.124,386.215 180.495,386.812 180.014 C 392.068 175.781,399.525 167.503,397.289 168.384 M385.385 180.738 C 385.385 181.031,385.118 181.226,384.900 181.091 C 384.668 180.948,384.868 180.551,385.173 180.551 C 385.290 180.551,385.385 180.635,385.385 180.738 M384.711 181.450 C 384.711 181.574,384.483 181.674,384.205 181.672 C 383.796 181.669,383.763 181.627,384.036 181.450 C 384.472 181.169,384.711 181.169,384.711 181.450 M383.591 182.347 C 383.414 182.456,383.171 182.483,383.050 182.408 C 382.928 182.333,383.025 182.201,383.264 182.114 C 383.802 181.919,384.025 182.078,383.591 182.347 M381.338 184.122 C 381.338 184.231,381.135 184.374,380.888 184.438 C 380.401 184.566,380.259 184.258,380.720 184.072 C 381.162 183.894,381.338 183.908,381.338 184.122 M378.640 186.172 C 378.640 186.296,378.412 186.395,378.134 186.393 C 377.725 186.391,377.692 186.348,377.965 186.172 C 378.401 185.890,378.640 185.890,378.640 186.172 M368.746 192.666 C 368.746 192.776,368.544 192.918,368.297 192.983 C 368.049 193.047,367.847 193.016,367.847 192.913 C 367.847 192.810,368.024 192.679,368.241 192.623 C 368.457 192.566,368.659 192.508,368.690 192.494 C 368.721 192.479,368.746 192.557,368.746 192.666 M367.622 193.367 C 367.622 193.491,367.395 193.590,367.116 193.588 C 366.707 193.586,366.675 193.543,366.948 193.367 C 367.384 193.085,367.622 193.085,367.622 193.367 M366.409 194.154 C 366.174 194.332,365.894 194.423,365.787 194.356 C 365.462 194.156,365.817 193.816,366.343 193.824 C 366.819 193.831,366.821 193.842,366.409 194.154 M365.374 194.716 C 365.374 194.840,365.146 194.939,364.868 194.938 C 364.459 194.935,364.427 194.892,364.699 194.716 C 365.135 194.434,365.374 194.434,365.374 194.716 M364.250 195.391 C 364.250 195.514,364.022 195.614,363.744 195.612 C 363.335 195.609,363.302 195.567,363.575 195.391 C 364.011 195.109,364.250 195.109,364.250 195.391 M363.125 196.065 C 363.125 196.189,362.917 196.290,362.662 196.290 C 362.408 196.290,362.262 196.189,362.338 196.065 C 362.415 195.942,362.623 195.840,362.801 195.840 C 362.980 195.840,363.125 195.942,363.125 196.065 M362.001 196.740 C 362.001 196.863,361.793 196.965,361.538 196.965 C 361.284 196.965,361.138 196.863,361.214 196.740 C 361.291 196.616,361.499 196.515,361.677 196.515 C 361.855 196.515,362.001 196.616,362.001 196.740 M360.764 197.414 C 360.688 197.538,360.480 197.639,360.302 197.639 C 360.123 197.639,359.978 197.538,359.978 197.414 C 359.978 197.291,360.186 197.189,360.440 197.189 C 360.695 197.189,360.841 197.291,360.764 197.414 M359.528 198.089 C 359.528 198.212,359.319 198.314,359.065 198.314 C 358.810 198.314,358.664 198.212,358.741 198.089 C 358.817 197.965,359.026 197.864,359.204 197.864 C 359.382 197.864,359.528 197.965,359.528 198.089 M358.291 198.763 C 358.215 198.887,358.000 198.988,357.815 198.988 C 357.629 198.988,357.540 198.887,357.617 198.763 C 357.693 198.640,357.907 198.539,358.093 198.539 C 358.278 198.539,358.368 198.640,358.291 198.763 M357.055 199.438 C 356.619 199.720,356.380 199.720,356.380 199.438 C 356.380 199.314,356.608 199.215,356.886 199.216 C 357.295 199.219,357.327 199.262,357.055 199.438 M355.705 200.112 C 355.270 200.394,355.031 200.394,355.031 200.112 C 355.031 199.989,355.259 199.889,355.537 199.891 C 355.946 199.894,355.978 199.936,355.705 200.112 M354.806 200.648 C 354.806 200.848,353.896 200.952,353.781 200.766 C 353.712 200.654,353.914 200.562,354.231 200.562 C 354.547 200.562,354.806 200.601,354.806 200.648 M353.457 201.323 C 353.457 201.522,352.547 201.627,352.432 201.440 C 352.363 201.328,352.565 201.237,352.882 201.237 C 353.198 201.237,353.457 201.275,353.457 201.323 M349.410 203.397 C 349.410 203.445,349.081 203.478,348.679 203.469 C 348.084 203.456,348.032 203.420,348.398 203.276 C 348.810 203.113,349.410 203.184,349.410 203.397 M346.374 204.609 C 346.455 204.740,346.249 204.828,345.882 204.818 C 345.279 204.803,345.347 204.711,346.192 204.400 C 346.216 204.392,346.298 204.486,346.374 204.609 M344.913 205.284 C 344.913 205.408,344.635 205.502,344.295 205.493 C 343.747 205.479,343.727 205.455,344.126 205.284 C 344.740 205.020,344.913 205.020,344.913 205.284 M343.564 205.958 C 343.564 206.082,343.235 206.182,342.833 206.180 C 342.279 206.177,342.184 206.124,342.440 205.958 C 342.882 205.673,343.564 205.673,343.564 205.958 M341.765 206.633 C 341.765 206.757,341.487 206.851,341.147 206.842 C 340.599 206.828,340.580 206.804,340.978 206.633 C 341.592 206.369,341.765 206.369,341.765 206.633 M340.416 207.307 C 340.416 207.431,340.087 207.531,339.685 207.529 C 339.131 207.526,339.036 207.473,339.292 207.307 C 339.734 207.022,340.416 207.022,340.416 207.307 M338.842 207.982 C 338.842 208.106,338.513 208.205,338.111 208.203 C 337.557 208.201,337.462 208.147,337.718 207.982 C 338.160 207.696,338.842 207.696,338.842 207.982 M337.156 208.657 C 337.079 208.780,336.764 208.881,336.455 208.881 C 336.137 208.881,335.953 208.784,336.031 208.657 C 336.108 208.533,336.423 208.432,336.733 208.432 C 337.050 208.432,337.234 208.530,337.156 208.657 M335.357 209.331 C 335.281 209.455,335.016 209.556,334.768 209.556 C 334.521 209.556,334.381 209.455,334.458 209.331 C 334.534 209.207,334.799 209.106,335.046 209.106 C 335.294 209.106,335.433 209.207,335.357 209.331 M333.671 210.006 C 333.231 210.290,332.771 210.290,332.771 210.006 C 332.771 209.882,333.049 209.782,333.390 209.784 C 333.871 209.787,333.933 209.836,333.671 210.006 M326.419 212.634 C 326.203 212.690,325.849 212.690,325.632 212.634 C 325.416 212.577,325.593 212.531,326.026 212.531 C 326.459 212.531,326.636 212.577,326.419 212.634 M322.597 213.983 C 322.381 214.040,322.026 214.040,321.810 213.983 C 321.594 213.926,321.771 213.880,322.203 213.880 C 322.636 213.880,322.813 213.926,322.597 213.983 M320.576 214.657 C 320.361 214.713,319.956 214.715,319.677 214.662 C 319.397 214.608,319.573 214.562,320.067 214.559 C 320.562 214.557,320.791 214.601,320.576 214.657 M318.325 215.332 C 318.108 215.389,317.754 215.389,317.538 215.332 C 317.322 215.276,317.499 215.229,317.931 215.229 C 318.364 215.229,318.541 215.276,318.325 215.332 M316.301 216.007 C 316.085 216.063,315.731 216.063,315.514 216.007 C 315.298 215.950,315.475 215.904,315.908 215.904 C 316.341 215.904,316.518 215.950,316.301 216.007 M311.580 217.356 C 311.363 217.412,311.009 217.412,310.793 217.356 C 310.576 217.299,310.753 217.253,311.186 217.253 C 311.619 217.253,311.796 217.299,311.580 217.356 M290.784 221.856 C 290.508 221.909,290.002 221.911,289.660 221.859 C 289.318 221.807,289.545 221.764,290.163 221.762 C 290.781 221.760,291.061 221.802,290.784 221.856 M286.341 222.596 C 285.722 222.686,285.065 222.675,284.879 222.573 C 284.675 222.460,285.119 222.395,286.003 222.409 L 287.465 222.432 286.341 222.596 M281.796 223.212 C 281.151 223.257,280.038 223.258,279.322 223.213 C 278.607 223.168,279.134 223.131,280.495 223.131 C 281.855 223.130,282.440 223.167,281.796 223.212 " stroke="none" fill="#aaa6a3" fill-rule="evenodd"></path><path id="path4" d="M121.192 0.225 C 121.192 0.349,121.698 0.450,122.316 0.450 C 122.934 0.450,123.440 0.349,123.440 0.225 C 123.440 0.101,122.934 0.000,122.316 0.000 C 121.698 0.000,121.192 0.101,121.192 0.225 M102.417 56.211 L 204.947 56.324 204.947 59.022 L 204.947 61.720 102.473 61.720 C 46.113 61.720,-0.000 61.796,-0.000 61.889 C 0.000 62.111,204.641 62.102,204.990 61.880 C 205.283 61.694,205.456 56.671,205.184 56.232 C 205.075 56.055,176.420 56.002,102.460 56.042 L -0.112 56.098 102.417 56.211 M195.538 159.474 C 195.202 159.720,195.159 160.114,195.214 162.453 L 195.278 165.149 297.695 165.149 L 400.112 165.150 297.808 165.037 L 195.503 164.924 195.440 162.282 C 195.405 160.829,195.405 159.615,195.440 159.585 C 195.475 159.554,241.540 159.478,297.808 159.416 L 400.112 159.302 298.019 159.246 C 216.142 159.202,195.850 159.247,195.538 159.474 " stroke="none" fill="#7c8c6c" fill-rule="evenodd"></path></g></svg>