<svg width="1119" height="729" xmlns="http://www.w3.org/2000/svg" xmlns:xlink="http://www.w3.org/1999/xlink" overflow="hidden"><defs><clipPath id="clip0"><rect x="2" y="-78" width="1119" height="729"/></clipPath></defs><g clip-path="url(#clip0)" transform="translate(-2 78)"><path d="M549-60.1663C549-68.3587 555.641-75 563.834-75L750.166-75C758.359-75 765-68.3587 765-60.1663L765-0.833725C765 7.35872 758.359 14 750.166 14L563.834 14C555.641 14 549 7.35872 549-0.833725Z" stroke="#D3D3D3" stroke-width="6" stroke-miterlimit="8" fill="#333333" fill-rule="evenodd"/><text fill="#FFFFFF" font-family="Calibri,Calibri_MSFontService,sans-serif" font-weight="400" font-size="16" transform="translate(598.783 -35)">Expert Comptable</text><text fill="#FFFFFF" font-family="Calibri,Calibri_MSFontService,sans-serif" font-weight="400" font-size="16" transform="translate(619.59 -16)">Yann CADIC</text><path d="M214 104.667C214 96.5666 220.567 90 228.667 90L416.333 90C424.433 90 431 96.5666 431 104.667L431 163.333C431 171.433 424.433 178 416.333 178L228.667 178C220.567 178 214 171.433 214 163.333Z" stroke="#00008B" stroke-width="6" stroke-miterlimit="8" fill="#333333" fill-rule="evenodd"/><text fill="#FFFFFF" font-family="Calibri,Calibri_MSFontService,sans-serif" font-weight="400" font-size="16" transform="translate(280.773 130)">Comptabilité</text><text fill="#FFFFFF" font-family="Calibri,Calibri_MSFontService,sans-serif" font-weight="400" font-size="16" transform="translate(300.333 149)">Equipe</text><path d="M214 258.667C214 250.567 220.567 244 228.667 244L416.333 244C424.433 244 431 250.567 431 258.667L431 317.333C431 325.433 424.433 332 416.333 332L228.667 332C220.567 332 214 325.433 214 317.333Z" stroke="#00008B" stroke-width="6" stroke-miterlimit="8" fill="#333333" fill-rule="evenodd"/><text fill="#FFFFFF" font-family="Calibri,Calibri_MSFontService,sans-serif" font-weight="400" font-size="16" transform="translate(229.06 293)">Responsable pôle</text><text fill="#FFFFFF" font-family="Calibri,Calibri_MSFontService,sans-serif" font-weight="400" font-size="16" transform="translate(346.78 293)">comptable</text><path d="M6 408.667C6 400.567 12.5666 394 20.6669 394L258.333 394C266.433 394 273 400.567 273 408.667L273 467.333C273 475.433 266.433 482 258.333 482L20.6669 482C12.5666 482 6 475.433 6 467.333Z" stroke="#00008B" stroke-width="6" stroke-miterlimit="8" fill="#333333" fill-rule="evenodd"/><text fill="#FFFFFF" font-family="Calibri,Calibri_MSFontService,sans-serif" font-weight="400" font-size="16" transform="translate(33.893 424)">Alternant assistant comptable et</text><text fill="#FFFFFF" font-family="Calibri,Calibri_MSFontService,sans-serif" font-weight="400" font-size="16" transform="translate(110.4 443)">juridique</text><text fill="#FFFFFF" font-family="Calibri,Calibri_MSFontService,sans-serif" font-weight="400" font-size="16" transform="translate(95.273 462)">Simon YVARD</text><path d="M373 408.667C373 400.567 379.567 394 387.667 394L625.333 394C633.433 394 640 400.567 640 408.667L640 467.333C640 475.433 633.433 482 625.333 482L387.667 482C379.567 482 373 475.433 373 467.333Z" stroke="#00008B" stroke-width="6" stroke-miterlimit="8" fill="#333333" fill-rule="evenodd"/><text fill="#FFFFFF" font-family="Calibri,Calibri_MSFontService,sans-serif" font-weight="400" font-size="16" transform="translate(393.224 424)">Alternante assistante comptable et</text><text fill="#FFFFFF" font-family="Calibri,Calibri_MSFontService,sans-serif" font-weight="400" font-size="16" transform="translate(474.491 443)">secrétaire</text><text fill="#FFFFFF" font-family="Calibri,Calibri_MSFontService,sans-serif" font-weight="400" font-size="16" transform="translate(475.971 462)">Elsa DIEU</text><path d="M189 573.667C189 565.567 195.567 559 203.667 559L441.333 559C449.433 559 456 565.567 456 573.667L456 632.333C456 640.433 449.433 647 441.333 647L203.667 647C195.567 647 189 640.433 189 632.333Z" stroke="#000000" stroke-width="6" stroke-miterlimit="8" fill="#333333" fill-rule="evenodd"/><text fill="#FFFFFF" font-family="Calibri,Calibri_MSFontService,sans-serif" font-weight="400" font-size="16" transform="translate(209.14 589)">Alternante assistante comptable et</text><text fill="#FFFFFF" font-family="Calibri,Calibri_MSFontService,sans-serif" font-weight="400" font-size="16" transform="translate(290.407 608)">secrétaire</text><text fill="#FFFFFF" font-family="Calibri,Calibri_MSFontService,sans-serif" font-weight="400" font-size="16" transform="translate(291.887 627)">Elsa DIEU</text><path d="M876 104.667C876 96.5666 882.567 90 890.667 90L1077.33 90C1085.43 90 1092 96.5666 1092 104.667L1092 163.333C1092 171.433 1085.43 178 1077.33 178L890.667 178C882.567 178 876 171.433 876 163.333Z" stroke="#F08080" stroke-width="6" stroke-miterlimit="8" fill="#333333" fill-rule="evenodd"/><text fill="#FFFFFF" font-family="Calibri,Calibri_MSFontService,sans-serif" font-weight="400" font-size="16" transform="translate(964.858 130)">Social</text><text fill="#FFFFFF" font-family="Calibri,Calibri_MSFontService,sans-serif" font-weight="400" font-size="16" transform="translate(961.558 149)">Equipe</text><path d="M876 258.667C876 250.567 882.567 244 890.667 244L1077.33 244C1085.43 244 1092 250.567 1092 258.667L1092 317.333C1092 325.433 1085.43 332 1077.33 332L890.667 332C882.567 332 876 325.433 876 317.333Z" stroke="#F08080" stroke-width="6" stroke-miterlimit="8" fill="#333333" fill-rule="evenodd"/><text fill="#FFFFFF" font-family="Calibri,Calibri_MSFontService,sans-serif" font-weight="400" font-size="16" transform="translate(896.331 274)">Responsable du pôle social</text><text fill="#FFFFFF" font-family="Calibri,Calibri_MSFontService,sans-serif" font-weight="400" font-size="16" transform="translate(940.638 293)">et secrétariat</text><text fill="#FFFFFF" font-family="Calibri,Calibri_MSFontService,sans-serif" font-weight="400" font-size="16" transform="translate(917.784 312)">Isabel LUZ FERREIRA</text><path d="M850 408.667C850 400.567 856.567 394 864.667 394L1102.33 394C1110.43 394 1117 400.567 1117 408.667L1117 467.333C1117 475.433 1110.43 482 1102.33 482L864.667 482C856.567 482 850 475.433 850 467.333Z" stroke="#000000" stroke-width="6" stroke-miterlimit="8" fill="#333333" fill-rule="evenodd"/><text fill="#FFFFFF" font-family="Calibri,Calibri_MSFontService,sans-serif" font-weight="400" font-size="16" transform="translate(870.361 424)">Alternante assistante comptable et</text><text fill="#FFFFFF" font-family="Calibri,Calibri_MSFontService,sans-serif" font-weight="400" font-size="16" transform="translate(951.628 443)">secrétaire</text><text fill="#FFFFFF" font-family="Calibri,Calibri_MSFontService,sans-serif" font-weight="400" font-size="16" transform="translate(953.108 462)">Elsa DIEU</text><path d="M322 41 983.221 41.0001" stroke="#D3D3D3" stroke-width="2" stroke-miterlimit="8" fill="none" fill-rule="evenodd"/><path d="M0 0 0.000104987 48.9321" stroke="#D3D3D3" stroke-width="2" stroke-miterlimit="8" fill="none" fill-rule="evenodd" transform="matrix(1 0 0 -1 322 89.9321)"/><path d="M657 14 657 41.6012" stroke="#D3D3D3" stroke-width="2" stroke-miterlimit="8" fill="none" fill-rule="evenodd"/><path d="M984 41 984 89.8939" stroke="#D3D3D3" stroke-width="2" stroke-miterlimit="8" fill="none" fill-rule="evenodd"/><path d="M0 0 0.000104987 65.2992" stroke="#D3D3D3" stroke-width="2" stroke-miterlimit="8" fill="none" fill-rule="evenodd" transform="matrix(1 0 0 -1 322 243.299)"/><path d="M0 0 0.000104987 65.3949" stroke="#D3D3D3" stroke-width="2" stroke-miterlimit="8" fill="none" fill-rule="evenodd" transform="matrix(1 0 0 -1 984 243.395)"/><path d="M0 0 0.000104987 62.2188" stroke="#D3D3D3" stroke-width="2" stroke-miterlimit="8" fill="none" fill-rule="evenodd" transform="matrix(1 0 0 -1 984 394.219)"/><path d="M0 0 0.000104987 227.497" stroke="#D3D3D3" stroke-width="2" stroke-miterlimit="8" fill="none" fill-rule="evenodd" transform="matrix(1 0 0 -1 322 559.497)"/><path d="M0 0 100.267 0.000104987" stroke="#D3D3D3" stroke-width="2" stroke-miterlimit="8" fill="none" fill-rule="evenodd" transform="matrix(-1 0 0 1 373.267 438)"/></g></svg>