<svg width="1322" height="656" xmlns="http://www.w3.org/2000/svg" xmlns:xlink="http://www.w3.org/1999/xlink" overflow="hidden"><defs><clipPath id="clip0"><rect x="-142" y="13" width="1322" height="656"/></clipPath></defs><g clip-path="url(#clip0)" transform="translate(142 -13)"><path d="M474 36.8336C474 25.8798 482.88 17 493.834 17L786.166 17C797.12 17 806 25.8798 806 36.8336L806 116.166C806 127.12 797.12 136 786.166 136L493.834 136C482.88 136 474 127.12 474 116.166Z" stroke="#D4D4D4" stroke-width="6" stroke-miterlimit="8" fill="#333333" fill-rule="evenodd"/><text fill="#FFFFFF" font-family="Calibri,Calibri_MSFontService,sans-serif" font-weight="400" font-size="24" transform="translate(552.45 70)">Expert Comptable</text><text fill="#FFFFFF" font-family="Calibri,Calibri_MSFontService,sans-serif" font-weight="400" font-size="24" transform="translate(583.617 99)">Yann</text><text fill="#FFFFFF" font-family="Calibri,Calibri_MSFontService,sans-serif" font-weight="400" font-size="24" transform="translate(636.043 99)">CADIC</text><path d="M104 213C104 201.954 112.954 193 124 193L416 193C427.046 193 436 201.954 436 213L436 293C436 304.046 427.046 313 416 313L124 313C112.954 313 104 304.046 104 293Z" stroke="#3232A2" stroke-width="6" stroke-miterlimit="8" fill="#333333" fill-rule="evenodd"/><text fill="#FFFFFF" font-family="Calibri,Calibri_MSFontService,sans-serif" font-weight="400" font-size="24" transform="translate(207.156 246)">Comptabilité</text><text fill="#FFFFFF" font-family="Calibri,Calibri_MSFontService,sans-serif" font-weight="400" font-size="24" transform="translate(236.416 275)">E</text><text fill="#FFFFFF" font-family="Calibri,Calibri_MSFontService,sans-serif" font-weight="400" font-size="24" transform="translate(247.729 275)">quipe</text><path d="M844 213C844 201.954 852.954 193 864 193L1156 193C1167.05 193 1176 201.954 1176 213L1176 293C1176 304.046 1167.05 313 1156 313L864 313C852.954 313 844 304.046 844 293Z" stroke="#F08080" stroke-width="6" stroke-miterlimit="8" fill="#333333" fill-rule="evenodd"/><text fill="#FFFFFF" font-family="Calibri,Calibri_MSFontService,sans-serif" font-weight="400" font-size="24" transform="translate(982.008 246)">Social</text><text fill="#FFFFFF" font-family="Calibri,Calibri_MSFontService,sans-serif" font-weight="400" font-size="24" transform="translate(976.768 275)">E</text><text fill="#FFFFFF" font-family="Calibri,Calibri_MSFontService,sans-serif" font-weight="400" font-size="24" transform="translate(988.081 275)">quipe</text><path d="M844 389C844 377.954 852.954 369 864 369L1156 369C1167.05 369 1176 377.954 1176 389L1176 469C1176 480.046 1167.05 489 1156 489L864 489C852.954 489 844 480.046 844 469Z" stroke="#F08080" stroke-width="6" stroke-miterlimit="8" fill="#333333" fill-rule="evenodd"/><text fill="#FFFFFF" font-family="Calibri,Calibri_MSFontService,sans-serif" font-weight="400" font-size="24" transform="translate(866.364 408)">Responsable du pôle social et</text><text fill="#FFFFFF" font-family="Calibri,Calibri_MSFontService,sans-serif" font-weight="400" font-size="24" transform="translate(958.318 437)">secrétariat</text><text fill="#FFFFFF" font-family="Calibri,Calibri_MSFontService,sans-serif" font-weight="400" font-size="24" transform="translate(911.511 466)">Isabel LUZ FERREIRA</text><path d="M844 565.834C844 554.88 852.88 546 863.834 546L1156.17 546C1167.12 546 1176 554.88 1176 565.834L1176 645.166C1176 656.12 1167.12 665 1156.17 665L863.834 665C852.88 665 844 656.12 844 645.166Z" stroke="#000000" stroke-width="6" stroke-miterlimit="8" fill="#333333" fill-rule="evenodd"/><text fill="#FFFFFF" font-family="Calibri,Calibri_MSFontService,sans-serif" font-weight="400" font-size="24" transform="translate(907.278 584)">Alternante assistante</text><text fill="#FFFFFF" font-family="Calibri,Calibri_MSFontService,sans-serif" font-weight="400" font-size="24" transform="translate(894.612 613)">comptable et secrétaire</text><text fill="#FFFFFF" font-family="Calibri,Calibri_MSFontService,sans-serif" font-weight="400" font-size="24" transform="translate(964.305 642)">Elsa</text><text fill="#FFFFFF" font-family="Calibri,Calibri_MSFontService,sans-serif" font-weight="400" font-size="24" transform="translate(1007.8 642)">DIEU</text><path d="M104 389.834C104 378.88 112.88 370 123.834 370L416.166 370C427.12 370 436 378.88 436 389.834L436 469.166C436 480.12 427.12 489 416.166 489L123.834 489C112.88 489 104 480.12 104 469.166Z" stroke="#3232A2" stroke-width="6" stroke-miterlimit="8" fill="#333333" fill-rule="evenodd"/><text fill="#FFFFFF" font-family="Calibri,Calibri_MSFontService,sans-serif" font-weight="400" font-size="24" transform="translate(129.585 423)">Responsable pôle comptable</text><path d="M640 136 640 164.724" stroke="#D4D4D4" stroke-width="2" stroke-miterlimit="8" fill="none" fill-rule="evenodd"/><path d="M270 164 270 192.681" stroke="#D4D4D4" stroke-width="2" stroke-miterlimit="8" fill="none" fill-rule="evenodd"/><path d="M640 165 1010.17 165" stroke="#D4D4D4" stroke-width="2" stroke-miterlimit="8" fill="none" fill-rule="evenodd"/><path d="M1010 164 1010 192.681" stroke="#D4D4D4" stroke-width="2" stroke-miterlimit="8" fill="none" fill-rule="evenodd"/><path d="M1010 313 1010 369.748" stroke="#D4D4D4" stroke-width="2" stroke-miterlimit="8" fill="none" fill-rule="evenodd"/><path d="M0 0 0.000104987 56.7119" stroke="#D4D4D4" stroke-width="2" stroke-miterlimit="8" fill="none" fill-rule="evenodd" transform="matrix(-1 0 0 1 1010 489)"/><path d="M0 0 0.000419947 56.9933" stroke="#D4D4D4" stroke-width="2" stroke-miterlimit="8" fill="none" fill-rule="evenodd" transform="matrix(-1 0 0 1 270 313)"/><path d="M270 165 640.174 165" stroke="#D4D4D4" stroke-width="2" stroke-miterlimit="8" fill="none" fill-rule="evenodd"/><path d="M347 562.834C347 551.88 355.88 543 366.834 543L658.166 543C669.12 543 678 551.88 678 562.834L678 642.166C678 653.12 669.12 662 658.166 662L366.834 662C355.88 662 347 653.12 347 642.166Z" stroke="#000000" stroke-width="6" stroke-miterlimit="8" fill="#333333" fill-rule="evenodd"/><text fill="#FFFFFF" font-family="Calibri,Calibri_MSFontService,sans-serif" font-weight="400" font-size="24" transform="translate(409.698 581)">Alternante assistante</text><text fill="#FFFFFF" font-family="Calibri,Calibri_MSFontService,sans-serif" font-weight="400" font-size="24" transform="translate(397.032 610)">comptable et secrétaire</text><text fill="#FFFFFF" font-family="Calibri,Calibri_MSFontService,sans-serif" font-weight="400" font-size="24" transform="translate(466.725 639)">Elsa</text><text fill="#FFFFFF" font-family="Calibri,Calibri_MSFontService,sans-serif" font-weight="400" font-size="24" transform="translate(510.225 639)">DIE</text><text fill="#FFFFFF" font-family="Calibri,Calibri_MSFontService,sans-serif" font-weight="400" font-size="24" transform="translate(542.725 639)">U</text><path d="M-139 562.834C-139 551.88-130.12 543-119.166 543L173.166 543C184.12 543 193 551.88 193 562.834L193 642.166C193 653.12 184.12 662 173.166 662L-119.166 662C-130.12 662-139 653.12-139 642.166Z" stroke="#3232A2" stroke-width="6" stroke-miterlimit="8" fill="#333333" fill-rule="evenodd"/><text fill="#FFFFFF" font-family="Calibri,Calibri_MSFontService,sans-serif" font-weight="400" font-size="24" transform="translate(-75.4408 581)">Alternante assistante</text><text fill="#FFFFFF" font-family="Calibri,Calibri_MSFontService,sans-serif" font-weight="400" font-size="24" transform="translate(-83.8808 610)">comptable et juridique</text><text fill="#FFFFFF" font-family="Calibri,Calibri_MSFontService,sans-serif" font-weight="400" font-size="24" transform="translate(-38.9341 639)">Simon YVARD</text><path d="M270 489 270 599.418" stroke="#D4D4D4" stroke-width="2" stroke-miterlimit="8" fill="none" fill-rule="evenodd"/><path d="M193 602 346.35 602" stroke="#D4D4D4" stroke-width="2" stroke-miterlimit="8" fill="none" fill-rule="evenodd"/></g></svg>