<svg width="1322" height="827" xmlns="http://www.w3.org/2000/svg" xmlns:xlink="http://www.w3.org/1999/xlink" overflow="hidden"><defs><clipPath id="clip0"><rect x="-142" y="-143" width="1322" height="827"/></clipPath></defs><g clip-path="url(#clip0)" transform="translate(142 143)"><path d="M474-119.166C474-130.12 482.88-139 493.834-139L786.166-139C797.12-139 806-130.12 806-119.166L806-39.8336C806-28.8798 797.12-20 786.166-20L493.834-20C482.88-20 474-28.8798 474-39.8336Z" stroke="#D4D4D4" stroke-width="6" stroke-miterlimit="8" fill="#333333" fill-rule="evenodd"/><text fill="#FFFFFF" font-family="Calibri,Calibri_MSFontService,sans-serif" font-weight="400" font-size="24" transform="translate(552.45 -86)">Expert Comptable</text><text fill="#FFFFFF" font-family="Calibri,Calibri_MSFontService,sans-serif" font-weight="400" font-size="24" transform="translate(583.617 -57)">Yann CADIC</text><path d="M104 56.8336C104 45.8798 112.88 37 123.834 37L416.166 37C427.12 37 436 45.8798 436 56.8336L436 136.166C436 147.12 427.12 156 416.166 156L123.834 156C112.88 156 104 147.12 104 136.166Z" stroke="#3232A2" stroke-width="6" stroke-miterlimit="8" fill="#333333" fill-rule="evenodd"/><text fill="#FFFFFF" font-family="Calibri,Calibri_MSFontService,sans-serif" font-weight="400" font-size="24" transform="translate(207.156 90)">Comptabilité</text><text fill="#FFFFFF" font-family="Calibri,Calibri_MSFontService,sans-serif" font-weight="400" font-size="24" transform="translate(236.416 119)">Equipe</text><path d="M844 56.8336C844 45.8798 852.88 37 863.834 37L1156.17 37C1167.12 37 1176 45.8798 1176 56.8336L1176 136.166C1176 147.12 1167.12 156 1156.17 156L863.834 156C852.88 156 844 147.12 844 136.166Z" stroke="#F08080" stroke-width="6" stroke-miterlimit="8" fill="#333333" fill-rule="evenodd"/><text fill="#FFFFFF" font-family="Calibri,Calibri_MSFontService,sans-serif" font-weight="400" font-size="24" transform="translate(982.008 90)">Social</text><text fill="#FFFFFF" font-family="Calibri,Calibri_MSFontService,sans-serif" font-weight="400" font-size="24" transform="translate(976.768 119)">Equipe</text><path d="M844 233C844 221.954 852.954 213 864 213L1156 213C1167.05 213 1176 221.954 1176 233L1176 313C1176 324.046 1167.05 333 1156 333L864 333C852.954 333 844 324.046 844 313Z" stroke="#F08080" stroke-width="6" stroke-miterlimit="8" fill="#333333" fill-rule="evenodd"/><text fill="#FFFFFF" font-family="Calibri,Calibri_MSFontService,sans-serif" font-weight="400" font-size="24" transform="translate(866.364 252)">Responsable du pôle social et</text><text fill="#FFFFFF" font-family="Calibri,Calibri_MSFontService,sans-serif" font-weight="400" font-size="24" transform="translate(958.318 281)">secrétariat</text><text fill="#FFFFFF" font-family="Calibri,Calibri_MSFontService,sans-serif" font-weight="400" font-size="24" transform="translate(911.511 310)">Isabel LUZ FERREIRA</text><path d="M844 409.834C844 398.88 852.88 390 863.834 390L1156.17 390C1167.12 390 1176 398.88 1176 409.834L1176 489.166C1176 500.12 1167.12 509 1156.17 509L863.834 509C852.88 509 844 500.12 844 489.166Z" stroke="#F08080" stroke-width="6" stroke-miterlimit="8" fill="#333333" fill-rule="evenodd"/><text fill="#FFFFFF" font-family="Calibri,Calibri_MSFontService,sans-serif" font-weight="400" font-size="24" transform="translate(905.665 457)">Collaboratrice sociale</text><path d="M104 233C104 221.954 112.954 213 124 213L416 213C427.046 213 436 221.954 436 233L436 313C436 324.046 427.046 333 416 333L124 333C112.954 333 104 324.046 104 313Z" stroke="#3232A2" stroke-width="6" stroke-miterlimit="8" fill="#333333" fill-rule="evenodd"/><text fill="#FFFFFF" font-family="Calibri,Calibri_MSFontService,sans-serif" font-weight="400" font-size="24" transform="translate(129.585 266)">Responsable pôle comptable</text><path d="M640-20 640 8.72441" stroke="#D4D4D4" stroke-width="2" stroke-miterlimit="8" fill="none" fill-rule="evenodd"/><path d="M270 8 270 36.6809" stroke="#D4D4D4" stroke-width="2" stroke-miterlimit="8" fill="none" fill-rule="evenodd"/><path d="M640 9 1010.17 9.0001" stroke="#D4D4D4" stroke-width="2" stroke-miterlimit="8" fill="none" fill-rule="evenodd"/><path d="M1010 8 1010 36.6809" stroke="#D4D4D4" stroke-width="2" stroke-miterlimit="8" fill="none" fill-rule="evenodd"/><path d="M1010 156 1010 212.748" stroke="#D4D4D4" stroke-width="2" stroke-miterlimit="8" fill="none" fill-rule="evenodd"/><path d="M0 0 0.000104987 56.7119" stroke="#D4D4D4" stroke-width="2" stroke-miterlimit="8" fill="none" fill-rule="evenodd" transform="matrix(-1 0 0 1 1010 333)"/><path d="M0 0 0.000419947 56.9933" stroke="#D4D4D4" stroke-width="2" stroke-miterlimit="8" fill="none" fill-rule="evenodd" transform="matrix(-1 0 0 1 270 156)"/><path d="M270 9 640.174 9.0001" stroke="#D4D4D4" stroke-width="2" stroke-miterlimit="8" fill="none" fill-rule="evenodd"/><path d="M347 580.834C347 569.88 355.88 561 366.834 561L658.166 561C669.12 561 678 569.88 678 580.834L678 660.166C678 671.12 669.12 680 658.166 680L366.834 680C355.88 680 347 671.12 347 660.166Z" stroke="#3232A2" stroke-width="6" stroke-miterlimit="8" fill="#333333" fill-rule="evenodd"/><text fill="#FFFFFF" font-family="Calibri,Calibri_MSFontService,sans-serif" font-weight="400" font-size="24" transform="translate(409.698 599)">Alternante assistante</text><text fill="#FFFFFF" font-family="Calibri,Calibri_MSFontService,sans-serif" font-weight="400" font-size="24" transform="translate(397.032 628)">comptable et secrétaire</text><text fill="#FFFFFF" font-family="Calibri,Calibri_MSFontService,sans-serif" font-weight="400" font-size="24" transform="translate(466.725 657)">Elsa DIEU</text><path d="M-139 580.834C-139 569.88-130.12 561-119.166 561L173.166 561C184.12 561 193 569.88 193 580.834L193 660.166C193 671.12 184.12 680 173.166 680L-119.166 680C-130.12 680-139 671.12-139 660.166Z" stroke="#3232A2" stroke-width="6" stroke-miterlimit="8" fill="#333333" fill-rule="evenodd"/><text fill="#FFFFFF" font-family="Calibri,Calibri_MSFontService,sans-serif" font-weight="400" font-size="24" transform="translate(-118.314 599)">Alternant assistant comptable</text><text fill="#FFFFFF" font-family="Calibri,Calibri_MSFontService,sans-serif" font-weight="400" font-size="24" transform="translate(-29.2675 628)">et juridique</text><text fill="#FFFFFF" font-family="Calibri,Calibri_MSFontService,sans-serif" font-weight="400" font-size="24" transform="translate(-38.9341 657)">Simon YVARD</text><path d="M193 620 346.35 620" stroke="#D4D4D4" stroke-width="2" stroke-miterlimit="8" fill="none" fill-rule="evenodd"/><path d="M104 408.834C104 397.88 112.88 389 123.834 389L416.166 389C427.12 389 436 397.88 436 408.834L436 488.166C436 499.12 427.12 508 416.166 508L123.834 508C112.88 508 104 499.12 104 488.166Z" stroke="#3232A2" stroke-width="6" stroke-miterlimit="8" fill="#333333" fill-rule="evenodd"/><text fill="#FFFFFF" font-family="Calibri,Calibri_MSFontService,sans-serif" font-weight="400" font-size="24" transform="translate(146.982 456)">Collaboratrice comptable</text><path d="M0 0 0.000209974 112.21" stroke="#D4D4D4" stroke-width="2" stroke-miterlimit="8" fill="none" fill-rule="evenodd" transform="matrix(-1 0 0 1 270 508)"/><path d="M0 0 0.000314961 58.2394" stroke="#D4D4D4" stroke-width="2" stroke-miterlimit="8" fill="none" fill-rule="evenodd" transform="matrix(-1 0 0 1 270 331)"/></g></svg>